{
    "asset" : {
        "generator" : "Khronos glTF Blender I/O v1.6.16",
        "version" : "2.0"
    },
    "scene" : 0,
    "scenes" : [
        {
            "name" : "Scene",
            "nodes" : [
                0
            ]
        }
    ],
    "nodes" : [
        {
            "mesh" : 0,
            "name" : "Cube",
            "scale" : [
                0.1382102519273758,
                0.1382102519273758,
                0.1382102519273758
            ]
        }
    ],
    "materials" : [
        {
            "doubleSided" : true,
            "name" : "Material",
            "pbrMetallicRoughness" : {}
        }
    ],
    "meshes" : [
        {
            "name" : "Cube",
            "primitives" : [
                {
                    "attributes" : {
                        "POSITION" : 0,
                        "NORMAL" : 1
                    },
                    "indices" : 2,
                    "material" : 0
                }
            ]
        }
    ],
    "accessors" : [
        {
            "bufferView" : 0,
            "componentType" : 5126,
            "count" : 4938,
            "max" : [
                9.8842134475708,
                1.2036820650100708,
                2.243870735168457
            ],
            "min" : [
                -9.8842134475708,
                -17.819429397583008,
                -1.4759069681167603
            ],
            "type" : "VEC3"
        },
        {
            "bufferView" : 1,
            "componentType" : 5126,
            "count" : 4938,
            "type" : "VEC3"
        },
        {
            "bufferView" : 2,
            "componentType" : 5123,
            "count" : 29616,
            "type" : "SCALAR"
        }
    ],
    "bufferViews" : [
        {
            "buffer" : 0,
            "byteLength" : 59256,
            "byteOffset" : 0
        },
        {
            "buffer" : 0,
            "byteLength" : 59256,
            "byteOffset" : 59256
        },
        {
            "buffer" : 0,
            "byteLength" : 59232,
            "byteOffset" : 118512
        }
    ],
    "buffers" : [
        {
            "byteLength" : 177744,
            "uri" : "data:application/octet-stream;base64,"
        }
    ]
}
